<svg xmlns="http://www.w3.org/2000/svg" version="1.1" xmlns:xlink="http://www.w3.org/1999/xlink" xmlns:svgjs="http://svgjs.com/svgjs" width="3640" height="2160" preserveAspectRatio="none" viewBox="0 0 3640 2160">
  <g mask="url(&quot;#SvgjsMask1095&quot;)" fill="none">
    <path d="M3390.977,1354.278C3597.8,1343.67,3771.795,1223.497,3884.02,1049.446C4008.727,856.037,4113.01,613.644,3996.478,415.202C3880.807,218.226,3618.765,192.757,3390.977,209.841C3196.148,224.453,3032.121,332.387,2924.701,495.583C2802.593,681.094,2695.81,909.781,2801.791,1104.955C2910.862,1305.819,3162.71,1365.986,3390.977,1354.278" fill="rgba(121, 87, 213, 1)" class="triangle-float2"></path>
    <path d="M2358.552,1391.954C2456.258,1386.412,2526.444,1306.616,2571.622,1219.805C2612.835,1140.613,2621.668,1047.953,2578.143,970.008C2533.536,890.125,2450.037,839.54,2358.552,838.234C2264.753,836.895,2178.139,884.404,2127.828,963.58C2073.318,1049.364,2050.859,1157.125,2099.056,1246.609C2149.445,1340.163,2252.462,1397.971,2358.552,1391.954" fill="rgba(121, 87, 213, 1)" class="triangle-float1"></path>
    <path d="M463.512,1043.165C667.498,1047.564,856.723,919.519,944.562,735.362C1022.899,571.126,947.061,388.34,848.941,235.1C760.328,96.709,627.761,-10.747,463.512,-15.922C290.183,-21.383,123.946,61.396,33.591,209.412C-60.64,363.777,-65.782,554.619,17.104,715.361C107.787,891.224,265.691,1038.899,463.512,1043.165" fill="rgba(121, 87, 213, 1)" class="triangle-float2"></path>
    <path d="M566.255,1640.703C743.841,1641.968,888.921,1515.22,977.308,1361.187C1065.225,1207.972,1106.623,1015.53,1009.754,867.812C919.018,729.446,731.556,727.015,566.255,734.364C417.64,740.971,266.876,779.457,186.177,904.428C98.681,1039.924,91.24,1212.08,165.225,1355.401C245.88,1511.643,390.427,1639.45,566.255,1640.703" fill="rgba(121, 87, 213, 1)" class="triangle-float2"></path>
    <path d="M1925.334,1045.859C2036.564,1040.781,2104.378,937.37,2160.262,841.064C2216.452,744.23,2275.962,632.229,2222.4,533.917C2167.375,432.919,2040.332,407.887,1925.334,409.856C1814.475,411.754,1702.82,448.961,1645.382,543.798C1586.047,641.767,1594.287,764.319,1650.067,864.354C1707.436,967.238,1807.659,1051.231,1925.334,1045.859" fill="rgba(121, 87, 213, 1)" class="triangle-float2"></path>
    <path d="M3437.577,682.983C3518.784,687.106,3605.159,657.451,3643.304,585.641C3679.857,516.827,3642.367,438.602,3603.157,371.266C3564.299,304.535,3514.774,234.216,3437.577,232.341C3358.128,230.412,3293.91,292.253,3257.455,362.871C3224.07,427.542,3229.414,503.013,3265.104,566.441C3301.572,631.252,3363.306,679.213,3437.577,682.983" fill="rgba(121, 87, 213, 1)" class="triangle-float2"></path>
    <path d="M233.415,1579.12C363.952,1583.035,501.062,1532.052,560.403,1415.716C616.166,1306.394,554.225,1183.268,488.049,1079.916C428.539,986.976,343.537,912.277,233.415,905.037C109.281,896.875,-22.747,935.406,-86.667,1042.13C-151.99,1151.196,-126.373,1287.867,-61.28,1397.071C2.083,1503.373,109.717,1575.41,233.415,1579.12" fill="rgba(121, 87, 213, 1)" class="triangle-float3"></path>
  </g>
  <defs>
    <mask id="SvgjsMask1095">
      <rect width="3640" height="2160" fill="#ffffff"></rect>
    </mask>
    <style>
      @keyframes float1 {
      0%{transform: translate(0, 0)}
      50%{transform: translate(-10px, 0)}
      100%{transform: translate(0, 0)}
      }

      .triangle-float1 {
      animation: float1 5s infinite;
      }

      @keyframes float2 {
      0%{transform: translate(0, 0)}
      50%{transform: translate(-5px, -5px)}
      100%{transform: translate(0, 0)}
      }

      .triangle-float2 {
      animation: float2 4s infinite;
      }

      @keyframes float3 {
      0%{transform: translate(0, 0)}
      50%{transform: translate(0, -10px)}
      100%{transform: translate(0, 0)}
      }

      .triangle-float3 {
      animation: float3 6s infinite;
      }
    </style>
  </defs>
</svg>
